/vscmnt/brussel_pixiu_data/_data_brussel/112/vsc11236/PredSimResults/SUBJ10opt3D/weighted-expIG/worker_01.mot
version=1
nRows=10
nColumns=50
inDegrees=yes
endheader
                time	         pelvis_tilt	         pelvis_list	     pelvis_rotation	           pelvis_tx	           pelvis_ty	           pelvis_tz	       hip_flexion_r	     hip_adduction_r	      hip_rotation_r	        knee_angle_r	       ankle_angle_r	         mtp_angle_r	       hip_flexion_l	     hip_adduction_l	      hip_rotation_l	        knee_angle_l	       ankle_angle_l	         mtp_angle_l	    lumbar_extension	      lumbar_bending	     lumbar_rotation	 ercspn_r/activation	 intobl_r/activation	 extobl_r/activation	    abd_r/activation	    add_r/activation	hamstrings_r/activation	bifemsh_r/activation	glut_max_r/activation	iliopsoas_r/activation	rect_fem_r/activation	  vasti_r/activation	gastroc_r/activation	 soleus_r/activation	tib_ant_r/activation	 ercspn_l/activation	 intobl_l/activation	 extobl_l/activation	    abd_l/activation	    add_l/activation	hamstrings_l/activation	bifemsh_l/activation	glut_max_l/activation	iliopsoas_l/activation	rect_fem_l/activation	  vasti_l/activation	gastroc_l/activation	 soleus_l/activation	tib_ant_l/activation	
          0.00000000	         -3.98142758	         -0.88453429	          7.00535790	          0.00000000	          0.82308413	         -0.01282232	         30.53424935	         -1.61741419	         -5.83135541	         -7.77488682	          3.05976489	          0.26679812	        -16.21761095	         -0.80459930	         -0.41830885	         -5.98596775	          8.36816466	         26.48091770	         -6.50158823	         -0.52697528	         -6.63413751	          0.10831750	          0.15743307	          0.00999999	          0.00999999	          0.19070785	          0.11006720	          0.22303411	          0.05109548	          0.09576417	          0.01000000	          0.00999999	          0.01939947	          0.01391377	          0.28937212	          0.09503549	          0.00999999	          0.00999999	          0.05408650	          0.00999999	          0.01191534	          0.21227447	          0.01303345	          0.38567244	          0.01000000	          0.00999999	          0.30786719	          0.25137596	          0.02371014	
          0.01130798	         -4.01664371	         -0.86014672	          7.10199699	          0.01549405	          0.82177221	         -0.01255578	         30.38121208	         -1.49670598	         -5.46062883	         -9.34576687	          2.71676710	          0.25216792	        -16.27034541	         -0.93006251	         -0.72656260	         -7.74599412	          7.69133037	         28.14836211	         -6.28179499	         -0.06518097	         -6.94379970	          0.09114056	          0.13246741	          0.00999999	          0.01000003	          0.16046550	          0.09658850	          0.18766547	          0.09530510	          0.08057793	          0.00999999	          0.00999999	          0.01632311	          0.01170733	          0.35550051	          0.11044723	          0.00999999	          0.00999999	          0.04550949	          0.01188466	          0.01884551	          0.17861209	          0.01096662	          0.32451269	          0.00999999	          0.00999999	          0.26936134	          0.24062272	          0.01995020	
          0.02261597	         -4.04326892	         -0.85174865	          7.15665379	          0.03121929	          0.82074623	         -0.01216768	         30.08199085	         -1.36780459	         -5.15188491	        -10.66314436	          2.25906809	          0.24349303	        -16.18255451	         -1.08273101	         -1.06176066	         -9.77402616	          6.85699485	         29.76531048	         -6.04613934	          0.41235548	         -7.22363335	          0.10538876	          0.11146079	          0.00999999	          0.05846097	          0.16513281	          0.08312986	          0.15790558	          0.10957453	          0.06779992	          0.00999999	          0.00999999	          0.01373460	          0.00999999	          0.41336993	          0.12550593	          0.00999999	          0.00999999	          0.03829262	          0.01000000	          0.01585702	          0.15028788	          0.00999999	          0.27305163	          0.00999999	          0.00999999	          0.22664615	          0.22370474	          0.01678651	
          0.03392395	         -4.06163853	         -0.83824633	          7.16951646	          0.04698739	          0.82011220	         -0.01166352	         29.73813305	         -1.24114029	         -4.94617190	        -11.91132085	          1.79314181	          0.22994945	        -15.90191241	         -1.24040199	         -1.42706694	        -12.13271994	          5.85544521	         31.23723656	         -5.81639055	          0.88117139	         -7.46894254	          0.10828477	          0.09378540	          0.00999999	          0.09648932	          0.20853117	          0.07046083	          0.13286499	          0.11674897	          0.05704825	          0.00999999	          0.00999999	          0.01155658	          0.00999999	          0.44695737	          0.15265081	          0.00999999	          0.00999999	          0.03222019	          0.00999999	          0.01344613	          0.12645530	          0.00999999	          0.22975124	          0.00999999	          0.00999999	          0.19070472	          0.20575398	          0.01412451	
          0.04523194	         -4.07153052	         -0.82250942	          7.14461578	          0.06266934	          0.81993552	         -0.01105502	         29.41247117	         -1.11588666	         -4.82552570	        -13.21600400	          1.46248883	          0.21651355	        -15.39108622	         -1.40880977	         -1.82732717	        -14.86278781	          4.70797184	         32.40772187	         -5.60233742	          1.34260351	         -7.67887377	          0.10796894	          0.07891295	          0.00999999	          0.12546063	          0.23793974	          0.06608380	          0.11179532	          0.11621244	          0.04800156	          0.00999999	          0.03475205	          0.00999999	          0.00999999	          0.45863699	          0.17536527	          0.00999999	          0.00999999	          0.02711073	          0.05613081	          0.02723533	          0.10640208	          0.00999999	          0.19331740	          0.00999999	          0.00999999	          0.16046286	          0.17782297	          0.01188465	
          0.05653992	         -4.07429307	         -0.80439246	          7.08464575	          0.07816566	          0.82028987	         -0.01036516	         29.09167301	         -0.99174705	         -4.76592086	        -14.54383994	          1.32624553	          0.20173768	        -14.61612804	         -1.58995697	         -2.28191025	        -17.99616506	          3.44127027	         33.06897022	         -5.40980630	          1.79550330	         -7.85343770	          0.10296357	          0.06639898	          0.00999999	          0.14120857	          0.25841441	          0.06576961	          0.09406688	          0.10809600	          0.04038950	          0.00999999	          0.07213530	          0.00999999	          0.00999999	          0.45262997	          0.18970776	          0.00999999	          0.00999999	          0.02281152	          0.12676915	          0.03141851	          0.08952889	          0.00999999	          0.16266122	          0.00999999	          0.00999999	          0.13501674	          0.14962389	          0.00999999	
          0.06784791	         -4.07190530	         -0.77916497	          6.99007727	          0.09341259	          0.82122383	         -0.00962025	         28.71722028	         -0.86634035	         -4.73672887	        -15.78719672	          1.42786295	          0.18977763	        -13.55262649	         -1.78552292	         -2.80766405	        -21.55134676	          2.06712510	         33.03028868	         -5.24220029	          2.23483934	         -7.99142841	          0.09751240	          0.05586946	          0.00999999	          0.14792239	          0.26754993	          0.06706390	          0.07914980	          0.09876404	          0.03398455	          0.00999999	          0.09692158	          0.00999999	          0.00999999	          0.42255598	          0.19325505	          0.00999999	          0.00999999	          0.01919408	          0.18878813	          0.03473950	          0.07533145	          0.00999999	          0.13686649	          0.00999999	          0.00999999	          0.11360585	          0.12589661	          0.00999999	
          0.07915589	         -4.06616698	         -0.74118990	          6.86076251	          0.10837164	          0.82272027	         -0.00884493	         28.23915366	         -0.73849294	         -4.70485788	        -16.85190997	          1.77586110	          0.19564685	        -12.19888064	         -1.99923441	         -3.39456513	        -25.47881032	          0.46833444	         32.31965383	         -5.10213464	          2.65563761	         -8.09100534	          0.08453688	          0.04700971	          0.00999999	          0.14906156	          0.26026625	          0.06988663	          0.06659826	          0.08358324	          0.02859530	          0.00999999	          0.12691690	          0.00999999	          0.00999999	          0.37256069	          0.19237777	          0.00999999	          0.00999999	          0.01615030	          0.25298154	          0.04017035	          0.06338542	          0.00999999	          0.11516227	          0.00999999	          0.00999999	          0.09559029	          0.10593199	          0.00999999	
          0.09046388	         -4.05920389	         -0.68247942	          6.69520684	          0.12300323	          0.82473523	         -0.00806021	         27.61233992	         -0.60939806	         -4.63655644	        -17.64038899	          2.32170634	          0.24907521	        -10.57402185	         -2.22917188	         -4.01597458	        -29.67459666	         -1.48223251	         30.99663050	         -4.99464211	          3.05037089	         -8.15065821	          0.07113106	          0.03955493	          0.00999999	          0.14473344	          0.22676538	          0.07269727	          0.05603714	          0.07032865	          0.02406067	          0.00999999	          0.14817115	          0.00999999	          0.00999999	          0.31905413	          0.18455710	          0.00999999	          0.00999999	          0.01358919	          0.29949510	          0.04808728	          0.05333380	          0.00999999	          0.09689989	          0.00999999	          0.00999999	          0.08043163	          0.08913334	          0.00999999	
          0.10177186	         -4.05283007	         -0.59407641	          6.49205978	          0.13726631	          0.82719906	         -0.00728226	         26.82269372	         -0.48735917	         -4.51584652	        -18.10388087	          2.95540984	          0.35327353	         -8.71616068	         -2.46709184	         -4.62684714	        -33.99665160	         -3.88010382	         29.12512946	         -4.92672178	          3.40960381	         -8.16827370	          0.05985113	          0.03328233	          0.00999999	          0.13960901	          0.19080504	          0.07850749	          0.04715080	          0.05917597	          0.02024514	          0.00999999	          0.14627475	          0.00999999	          0.00999999	          0.27253425	          0.18960479	          0.02590486	          0.00999999	          0.01143422	          0.25246939	          0.07887591	          0.05371921	          0.00999999	          0.08153356	          0.00999999	          0.00999999	          0.06767682	          0.07499862	          0.00999999	
